<svg width="142" height="22" viewBox="0 0 142 22" fill="none" xmlns="http://www.w3.org/2000/svg">
<path d="M0.015625 1.42188C0.708333 1.58594 1.32812 1.71354 1.875 1.80469C2.4401 1.8776 2.91406 1.93229 3.29688 1.96875C3.7526 2.02344 4.15365 2.04167 4.5 2.02344C4.9375 2.00521 5.48438 1.94141 6.14062 1.83203C6.79688 1.72266 7.48958 1.61328 8.21875 1.50391C8.94792 1.39453 9.66797 1.30339 10.3789 1.23047C11.0898 1.15755 11.7096 1.14844 12.2383 1.20312C12.7669 1.25781 13.3229 1.38542 13.9062 1.58594C14.4896 1.76823 15.0365 2.02344 15.5469 2.35156C16.0573 2.66146 16.4948 3.04427 16.8594 3.5C17.2422 3.95573 17.4792 4.48438 17.5703 5.08594C17.6615 5.66927 17.6068 6.29818 17.4062 6.97266C17.2057 7.62891 16.8867 8.27604 16.4492 8.91406C16.0117 9.53385 15.4648 10.1081 14.8086 10.6367C14.1523 11.1654 13.4232 11.5938 12.6211 11.9219C11.9831 12.1589 11.2904 12.3411 10.543 12.4688C9.90495 12.5781 9.15755 12.651 8.30078 12.6875C7.46224 12.7057 6.56901 12.6146 5.62109 12.4141C5.49349 12.9427 5.42057 13.4349 5.40234 13.8906C5.40234 14.3281 5.42057 14.7201 5.45703 15.0664C5.51172 15.4674 5.58464 15.832 5.67578 16.1602C5.78516 16.4883 5.92188 16.8711 6.08594 17.3086C6.23177 17.6732 6.39583 18.1198 6.57812 18.6484C6.77865 19.1589 7.01562 19.7331 7.28906 20.3711C6.96094 20.3711 6.64193 20.3802 6.33203 20.3984C6.02214 20.3984 5.73958 20.4076 5.48438 20.4258C5.19271 20.444 4.91927 20.4622 4.66406 20.4805C4.3724 20.4987 4.04427 20.5352 3.67969 20.5898C3.36979 20.6263 2.97786 20.681 2.50391 20.7539C2.04818 20.8268 1.52865 20.918 0.945312 21.0273C1.32812 20.4805 1.62891 19.9792 1.84766 19.5234C2.08464 19.0495 2.25781 18.6393 2.36719 18.293C2.49479 17.8919 2.57682 17.5273 2.61328 17.1992C2.63151 16.9258 2.63151 16.4427 2.61328 15.75C2.61328 15.0573 2.60417 14.2552 2.58594 13.3438C2.56771 12.4323 2.54036 11.4753 2.50391 10.4727C2.46745 9.47005 2.42188 8.53125 2.36719 7.65625C2.3125 6.76302 2.2487 5.9974 2.17578 5.35938C2.12109 4.72135 2.06641 4.30208 2.01172 4.10156C1.9388 3.86458 1.8112 3.60938 1.62891 3.33594C1.48307 3.09896 1.27344 2.82552 1 2.51562C0.744792 2.1875 0.416667 1.82292 0.015625 1.42188ZM5.67578 6.80859C5.65755 6.99089 5.64844 7.18229 5.64844 7.38281C5.64844 7.76562 5.67578 8.25781 5.73047 8.85938C5.85807 9.16927 6.01302 9.42448 6.19531 9.625C6.39583 9.82552 6.60547 9.98047 6.82422 10.0898C7.0612 10.1992 7.29818 10.2721 7.53516 10.3086C7.77214 10.3451 8.00911 10.3633 8.24609 10.3633C8.79297 10.3451 9.36719 10.2174 9.96875 9.98047C10.7708 9.63411 11.3359 9.14193 11.6641 8.50391C11.9922 7.86589 12.1654 7.20964 12.1836 6.53516C12.2018 5.86068 12.0833 5.24089 11.8281 4.67578C11.5911 4.11068 11.2995 3.72786 10.9531 3.52734C10.6615 3.39974 10.2878 3.34505 9.83203 3.36328C9.43099 3.38151 8.92969 3.48177 8.32812 3.66406C7.72656 3.84635 6.98828 4.17448 6.11328 4.64844C6.02214 4.97656 5.94922 5.26823 5.89453 5.52344C5.83984 5.77865 5.79427 6.00651 5.75781 6.20703C5.72135 6.42578 5.69401 6.6263 5.67578 6.80859ZM17.8711 1.17578C18.3997 1.26693 18.8646 1.33073 19.2656 1.36719C19.6849 1.40365 20.0312 1.43099 20.3047 1.44922C20.6328 1.46745 20.9154 1.47656 21.1523 1.47656C21.3893 1.47656 21.7266 1.45833 22.1641 1.42188C22.5286 1.38542 23.0026 1.33984 23.5859 1.28516C24.1875 1.23047 24.9258 1.13932 25.8008 1.01172C25.5456 1.08464 25.3086 1.29427 25.0898 1.64062C24.8893 1.96875 24.707 2.32422 24.543 2.70703C24.3424 3.16276 24.1693 3.66406 24.0234 4.21094C23.8958 4.70312 23.7318 5.3776 23.5312 6.23438C23.349 7.09115 23.1667 8.02083 22.9844 9.02344C22.8203 10.026 22.6927 11.0469 22.6016 12.0859C22.5104 13.1068 22.4922 14.0456 22.5469 14.9023C22.6198 15.7591 22.793 16.4701 23.0664 17.0352C23.3398 17.582 23.7591 17.8737 24.3242 17.9102C25.181 17.9831 25.8919 17.9922 26.457 17.9375C27.0404 17.8646 27.5143 17.7643 27.8789 17.6367C28.2435 17.5091 28.526 17.3633 28.7266 17.1992C28.9271 17.0169 29.082 16.8438 29.1914 16.6797C29.4831 16.2604 29.7839 15.7227 30.0938 15.0664C30.4036 14.4102 30.6771 13.7812 30.9141 13.1797C31.1693 12.5781 31.3789 12.0677 31.543 11.6484C31.707 11.2292 31.7891 11.0286 31.7891 11.0469C31.7891 11.0833 31.7799 11.293 31.7617 11.6758C31.7617 12.0404 31.7526 12.487 31.7344 13.0156C31.7344 13.526 31.7253 14.0638 31.707 14.6289C31.707 15.194 31.6979 15.6771 31.6797 16.0781C31.6615 16.4062 31.6432 16.7708 31.625 17.1719C31.6068 17.5182 31.5885 17.9284 31.5703 18.4023C31.5703 18.8763 31.5521 19.3958 31.5156 19.9609C30.75 19.9062 30.0208 19.8698 29.3281 19.8516C28.6354 19.8333 28.0247 19.8242 27.4961 19.8242C26.8763 19.8242 26.3021 19.8333 25.7734 19.8516C25.2083 19.8698 24.5521 19.8971 23.8047 19.9336C23.1667 19.9701 22.3737 20.0156 21.4258 20.0703C20.4779 20.1068 19.3841 20.1615 18.1445 20.2344C18.2904 19.9792 18.4089 19.7422 18.5 19.5234C18.6094 19.3047 18.6914 19.1224 18.7461 18.9766C18.819 18.7943 18.8646 18.6393 18.8828 18.5117C18.9922 17.9284 19.0833 17.1901 19.1562 16.2969C19.2292 15.3854 19.2839 14.4193 19.3203 13.3984C19.375 12.3776 19.4023 11.3385 19.4023 10.2812C19.4206 9.20573 19.4206 8.21224 19.4023 7.30078C19.3841 6.38932 19.3477 5.59635 19.293 4.92188C19.2565 4.2474 19.2018 3.78255 19.1289 3.52734C19.0378 3.23568 18.9284 2.94401 18.8008 2.65234C18.6914 2.39714 18.5547 2.14193 18.3906 1.88672C18.2448 1.61328 18.0716 1.3763 17.8711 1.17578ZM36.793 2.48828C37.7044 2.54297 38.4701 2.58854 39.0898 2.625C39.7279 2.64323 40.2565 2.66146 40.6758 2.67969C41.1497 2.69792 41.5508 2.69792 41.8789 2.67969C42.207 2.66146 42.6536 2.61589 43.2188 2.54297C43.6927 2.48828 44.3216 2.40625 45.1055 2.29688C45.9076 2.16927 46.901 2.00521 48.0859 1.80469C47.6667 2.22396 47.3385 2.60677 47.1016 2.95312C46.8828 3.28125 46.7096 3.5638 46.582 3.80078C46.4362 4.09245 46.3359 4.33854 46.2812 4.53906C46.2448 4.72135 46.2812 5.17708 46.3906 5.90625C46.5 6.63542 46.6549 7.5013 46.8555 8.50391C47.056 9.48828 47.2747 10.5456 47.5117 11.6758C47.7487 12.7878 47.9857 13.8359 48.2227 14.8203C48.4596 15.7865 48.6693 16.6159 48.8516 17.3086C49.0521 17.9831 49.1979 18.3841 49.2891 18.5117C49.5625 18.8945 49.7357 19.1497 49.8086 19.2773C49.8815 19.3867 50.0091 19.487 50.1914 19.5781C50.2643 19.6146 50.3828 19.6693 50.5469 19.7422C50.6927 19.8151 50.8841 19.9062 51.1211 20.0156C51.3763 20.125 51.6953 20.2526 52.0781 20.3984C51.3672 20.4349 50.7565 20.4622 50.2461 20.4805C49.7357 20.4805 49.3164 20.4896 48.9883 20.5078C48.6055 20.526 48.2773 20.5443 48.0039 20.5625C47.7305 20.5625 47.4023 20.5807 47.0195 20.6172C46.6914 20.6536 46.263 20.6901 45.7344 20.7266C45.224 20.763 44.6224 20.7995 43.9297 20.8359C44.2943 20.5807 44.5859 20.3529 44.8047 20.1523C45.0417 19.9336 45.224 19.7513 45.3516 19.6055C45.4974 19.4232 45.5977 19.2591 45.6523 19.1133C45.6888 18.9492 45.7161 18.7031 45.7344 18.375C45.7526 18.0833 45.7526 17.7005 45.7344 17.2266C45.7161 16.7344 45.6706 16.0964 45.5977 15.3125L38.4062 16.0508C38.224 16.3607 38.0872 16.6341 37.9961 16.8711C37.9049 17.0898 37.8411 17.2812 37.8047 17.4453C37.75 17.6458 37.7318 17.8099 37.75 17.9375C37.7865 18.0833 37.8503 18.2565 37.9414 18.457C38.0326 18.6393 38.1602 18.8581 38.3242 19.1133C38.5065 19.3503 38.7708 19.6328 39.1172 19.9609C38.6615 19.9427 38.1966 19.9336 37.7227 19.9336C37.2487 19.9336 36.8112 19.9427 36.4102 19.9609C35.9362 19.9792 35.4714 19.9974 35.0156 20.0156C34.5599 20.0339 34.0404 20.0612 33.457 20.0977C32.9648 20.1341 32.3906 20.1797 31.7344 20.2344C31.0599 20.2708 30.3398 20.3255 29.5742 20.3984C30.0482 20.1797 30.4492 19.9609 30.7773 19.7422C31.1055 19.5052 31.3789 19.2865 31.5977 19.0859C31.8529 18.8672 32.0716 18.6576 32.2539 18.457C32.3815 18.2747 32.6367 17.8555 33.0195 17.1992C33.4023 16.5247 33.8307 15.7318 34.3047 14.8203C34.7969 13.9089 35.3073 12.9336 35.8359 11.8945C36.3828 10.8555 36.875 9.88021 37.3125 8.96875C37.75 8.03906 38.1055 7.23698 38.3789 6.5625C38.6523 5.88802 38.7891 5.45052 38.7891 5.25C38.7526 5.01302 38.6615 4.7487 38.5156 4.45703C38.388 4.20182 38.1875 3.91016 37.9141 3.58203C37.6589 3.25391 37.2852 2.88932 36.793 2.48828ZM45.2695 13.2891C45.1602 12.651 45.0599 12.1042 44.9688 11.6484C44.8776 11.1745 44.8047 10.7826 44.75 10.4727C44.6771 10.1081 44.6224 9.78906 44.5859 9.51562C44.5312 9.26042 44.4674 8.93229 44.3945 8.53125C44.3216 8.1849 44.2305 7.75651 44.1211 7.24609C44.0299 6.71745 43.9115 6.08854 43.7656 5.35938C42.7266 7.4375 41.9154 9.05078 41.332 10.1992C40.7669 11.3294 40.3568 12.1589 40.1016 12.6875C39.7917 13.3073 39.6185 13.6719 39.582 13.7812L45.2695 13.2891ZM50.5195 1.61328C51.3398 1.75911 52.0143 1.85938 52.543 1.91406C53.0716 1.96875 53.5 2.01432 53.8281 2.05078C54.2109 2.08724 54.5117 2.09635 54.7305 2.07812H55.5508C55.8424 2.07812 56.207 2.07812 56.6445 2.07812C57.1003 2.0599 57.6654 2.05078 58.3398 2.05078C58.7227 2.94401 59.069 3.76432 59.3789 4.51172C59.707 5.25911 59.9805 5.89714 60.1992 6.42578C60.4544 7.0638 60.6914 7.63802 60.9102 8.14844C61.1654 8.78646 61.4388 9.48828 61.7305 10.2539C62.0221 11.0195 62.2865 11.7396 62.5234 12.4141C62.7786 13.0885 62.9883 13.6445 63.1523 14.082C63.3164 14.5195 63.3984 14.7201 63.3984 14.6836C63.3984 14.6654 63.4076 14.4831 63.4258 14.1367C63.444 13.7721 63.4622 13.3255 63.4805 12.7969C63.4987 12.25 63.5169 11.6576 63.5352 11.0195C63.5716 10.3633 63.5898 9.73438 63.5898 9.13281C63.6081 8.51302 63.6172 7.94792 63.6172 7.4375C63.6172 6.92708 63.599 6.54427 63.5625 6.28906C63.5078 5.97917 63.3984 5.6237 63.2344 5.22266C63.0885 4.8763 62.888 4.46615 62.6328 3.99219C62.3776 3.5 62.0221 2.94401 61.5664 2.32422C62.3138 2.34245 62.9245 2.35156 63.3984 2.35156C63.8724 2.35156 64.2552 2.35156 64.5469 2.35156C64.875 2.35156 65.1302 2.34245 65.3125 2.32422C65.5495 2.32422 65.8411 2.30599 66.1875 2.26953C66.4974 2.23307 66.8802 2.20573 67.3359 2.1875C67.8099 2.15104 68.3932 2.10547 69.0859 2.05078C68.6849 2.41536 68.3659 2.76172 68.1289 3.08984C67.8919 3.41797 67.7005 3.70964 67.5547 3.96484C67.3906 4.25651 67.2812 4.52995 67.2266 4.78516C67.1536 5.11328 67.0898 5.65104 67.0352 6.39844C66.9987 7.1276 66.9531 7.94792 66.8984 8.85938C66.862 9.77083 66.8255 10.7188 66.7891 11.7031C66.7526 12.6875 66.7161 13.5898 66.6797 14.4102C66.6797 15.0299 66.6615 15.6953 66.625 16.4062C66.5885 17.0078 66.5521 17.6914 66.5156 18.457C66.4792 19.2044 66.4336 19.9609 66.3789 20.7266L63.9453 20.7812C63.2344 19.5234 62.6328 18.4479 62.1406 17.5547C61.6667 16.6432 61.2747 15.8958 60.9648 15.3125C60.6185 14.638 60.3268 14.0729 60.0898 13.6172C59.8893 13.1797 59.625 12.6784 59.2969 12.1133C59.0234 11.6393 58.6771 11.056 58.2578 10.3633C57.8568 9.67057 57.3737 8.8776 56.8086 7.98438C56.7539 9.24219 56.7266 10.3177 56.7266 11.2109C56.7448 12.0859 56.7721 12.8151 56.8086 13.3984C56.8633 14.0729 56.9271 14.638 57 15.0938C57.0911 15.5312 57.2188 16.0234 57.3828 16.5703C57.5286 17.0443 57.7018 17.6003 57.9023 18.2383C58.1211 18.8763 58.3854 19.5964 58.6953 20.3984C57.6198 20.3438 56.8177 20.3164 56.2891 20.3164H55.4688C55.2135 20.3164 54.8672 20.3438 54.4297 20.3984C54.0651 20.4349 53.5638 20.4896 52.9258 20.5625C52.306 20.6354 51.5312 20.7357 50.6016 20.8633C51.0391 20.3346 51.3854 19.8516 51.6406 19.4141C51.9141 18.9583 52.1237 18.5755 52.2695 18.2656C52.4518 17.901 52.5794 17.582 52.6523 17.3086C52.707 17.0169 52.7435 16.5156 52.7617 15.8047C52.7799 15.0755 52.7799 14.2552 52.7617 13.3438C52.7617 12.4141 52.7435 11.4388 52.707 10.418C52.6888 9.39714 52.6615 8.44922 52.625 7.57422C52.5885 6.69922 52.543 5.95182 52.4883 5.33203C52.4518 4.71224 52.4245 4.32943 52.4062 4.18359C52.3516 3.94661 52.2422 3.69141 52.0781 3.41797C51.9323 3.18099 51.7409 2.91667 51.5039 2.625C51.2669 2.3151 50.9388 1.97786 50.5195 1.61328ZM68.1289 1.03906C69.3503 1.1849 70.4076 1.29427 71.3008 1.36719C72.194 1.42188 72.9323 1.46745 73.5156 1.50391C74.1901 1.54036 74.7552 1.54948 75.2109 1.53125C75.6849 1.51302 76.332 1.46745 77.1523 1.39453C77.8451 1.33984 78.7565 1.26693 79.8867 1.17578C81.0169 1.06641 82.4297 0.920573 84.125 0.738281C84.1432 1.15755 84.1523 1.56771 84.1523 1.96875C84.1706 2.35156 84.1888 2.6888 84.207 2.98047C84.2253 3.32682 84.2344 3.64583 84.2344 3.9375C84.2344 4.2474 84.2161 4.63932 84.1797 5.11328C84.1432 5.51432 84.0794 6.02474 83.9883 6.64453C83.9154 7.24609 83.7969 7.96615 83.6328 8.80469C83.3776 7.82031 83.1315 7.02734 82.8945 6.42578C82.6576 5.80599 82.4388 5.3138 82.2383 4.94922C82.0195 4.52995 81.8008 4.21094 81.582 3.99219C81.3451 3.82812 81.0625 3.69141 80.7344 3.58203C80.4427 3.49089 80.069 3.41797 79.6133 3.36328C79.1758 3.30859 78.6562 3.31771 78.0547 3.39062C77.9635 5.79688 77.8997 7.7474 77.8633 9.24219C77.8268 10.737 77.7995 11.9036 77.7812 12.7422C77.763 13.7448 77.7539 14.4648 77.7539 14.9023C77.7721 15.5221 77.8724 16.1328 78.0547 16.7344C78.2005 17.2448 78.4375 17.7734 78.7656 18.3203C79.0938 18.8672 79.5677 19.3503 80.1875 19.7695H76.8516C76.5417 19.7695 76.1589 19.7878 75.7031 19.8242C75.3203 19.8607 74.8281 19.8971 74.2266 19.9336C73.6432 19.9701 72.9596 20.0339 72.1758 20.125C72.4492 19.651 72.668 19.2227 72.832 18.8398C72.9961 18.457 73.1237 18.1289 73.2148 17.8555C73.3242 17.5273 73.4062 17.2357 73.4609 16.9805C73.4792 16.6159 73.5247 15.8776 73.5977 14.7656C73.6159 14.3099 73.6341 13.7448 73.6523 13.0703C73.6888 12.3958 73.7253 11.5938 73.7617 10.6641C73.8164 9.73438 73.862 8.66797 73.8984 7.46484C73.9531 6.24349 74.0078 4.86719 74.0625 3.33594C73.7344 3.24479 73.4245 3.25391 73.1328 3.36328C72.8411 3.45443 72.5859 3.57292 72.3672 3.71875C72.112 3.90104 71.8659 4.11979 71.6289 4.375C71.3919 4.6849 71.1276 5.08594 70.8359 5.57812C70.5807 5.9974 70.2891 6.55339 69.9609 7.24609C69.6328 7.92057 69.2591 8.75911 68.8398 9.76172C68.7487 8.70443 68.6849 7.83854 68.6484 7.16406C68.612 6.47135 68.5846 5.93359 68.5664 5.55078C68.5482 5.09505 68.5391 4.75781 68.5391 4.53906C68.5391 4.33854 68.5208 4.07422 68.4844 3.74609C68.4479 3.47266 68.4023 3.11719 68.3477 2.67969C68.293 2.22396 68.2201 1.67708 68.1289 1.03906ZM83.8242 10.9648C84.5352 10.9831 85.1823 10.9922 85.7656 10.9922C86.3672 10.9922 86.8867 10.9922 87.3242 10.9922C87.8346 10.9922 88.2995 10.9831 88.7188 10.9648C89.1562 10.9648 89.7122 10.9466 90.3867 10.9102C90.9701 10.8919 91.6992 10.8646 92.5742 10.8281C93.4674 10.7917 94.5521 10.7461 95.8281 10.6914L95.6914 13.4805C94.6706 13.4076 93.8138 13.362 93.1211 13.3438C92.4466 13.3073 91.8997 13.2799 91.4805 13.2617C90.9883 13.2435 90.5872 13.2435 90.2773 13.2617C89.9674 13.2799 89.5299 13.3073 88.9648 13.3438C88.4909 13.3802 87.8438 13.4258 87.0234 13.4805C86.2214 13.5169 85.2005 13.5807 83.9609 13.6719L83.8242 10.9648ZM96.5117 2.16016C97.1315 2.23307 97.651 2.28776 98.0703 2.32422C98.5078 2.34245 98.8633 2.36979 99.1367 2.40625C99.4648 2.44271 99.7201 2.46094 99.9023 2.46094C100.103 2.47917 100.404 2.47005 100.805 2.43359C101.151 2.39714 101.616 2.35156 102.199 2.29688C102.801 2.24219 103.566 2.16016 104.496 2.05078C104.077 2.41536 103.74 2.77083 103.484 3.11719C103.247 3.44531 103.065 3.73698 102.938 3.99219C102.773 4.30208 102.673 4.59375 102.637 4.86719C102.564 5.30469 102.5 5.90625 102.445 6.67188C102.409 7.41927 102.372 8.23958 102.336 9.13281C102.299 10.026 102.281 10.9466 102.281 11.8945C102.281 12.8424 102.29 13.7448 102.309 14.6016C102.345 15.4401 102.4 16.1875 102.473 16.8438C102.564 17.5 102.673 17.974 102.801 18.2656C102.983 18.5938 103.174 18.9219 103.375 19.25C103.557 19.5234 103.776 19.806 104.031 20.0977C104.286 20.3893 104.578 20.6263 104.906 20.8086C103.831 20.7539 102.974 20.7266 102.336 20.7266H101.352C101.06 20.7266 100.686 20.7448 100.23 20.7812C99.8477 20.8177 99.3646 20.8542 98.7812 20.8906C98.1979 20.9271 97.4961 20.9818 96.6758 21.0547C97.0951 20.599 97.4232 20.1615 97.6602 19.7422C97.8971 19.3229 98.0885 18.9583 98.2344 18.6484C98.3984 18.2839 98.5078 17.9375 98.5625 17.6094C98.6354 17.1354 98.6901 16.5521 98.7266 15.8594C98.7812 15.1484 98.8177 14.3919 98.8359 13.5898C98.8542 12.7695 98.8542 11.9401 98.8359 11.1016C98.8359 10.2448 98.8177 9.42448 98.7812 8.64062C98.7448 7.85677 98.6901 7.14583 98.6172 6.50781C98.5625 5.86979 98.4896 5.35938 98.3984 4.97656C98.3438 4.73958 98.2344 4.47526 98.0703 4.18359C97.9245 3.92839 97.724 3.63672 97.4688 3.30859C97.2318 2.96224 96.9128 2.57943 96.5117 2.16016ZM104.906 1.61328C105.727 1.75911 106.401 1.85938 106.93 1.91406C107.458 1.96875 107.887 2.01432 108.215 2.05078C108.598 2.08724 108.898 2.09635 109.117 2.07812H109.938C110.229 2.07812 110.594 2.07812 111.031 2.07812C111.487 2.0599 112.052 2.05078 112.727 2.05078C113.109 2.94401 113.456 3.76432 113.766 4.51172C114.094 5.25911 114.367 5.89714 114.586 6.42578C114.841 7.0638 115.078 7.63802 115.297 8.14844C115.552 8.78646 115.826 9.48828 116.117 10.2539C116.409 11.0195 116.673 11.7396 116.91 12.4141C117.165 13.0885 117.375 13.6445 117.539 14.082C117.703 14.5195 117.785 14.7201 117.785 14.6836C117.785 14.6654 117.794 14.4831 117.812 14.1367C117.831 13.7721 117.849 13.3255 117.867 12.7969C117.885 12.25 117.904 11.6576 117.922 11.0195C117.958 10.3633 117.977 9.73438 117.977 9.13281C117.995 8.51302 118.004 7.94792 118.004 7.4375C118.004 6.92708 117.986 6.54427 117.949 6.28906C117.895 5.97917 117.785 5.6237 117.621 5.22266C117.475 4.8763 117.275 4.46615 117.02 3.99219C116.764 3.5 116.409 2.94401 115.953 2.32422C116.701 2.34245 117.311 2.35156 117.785 2.35156C118.259 2.35156 118.642 2.35156 118.934 2.35156C119.262 2.35156 119.517 2.34245 119.699 2.32422C119.936 2.32422 120.228 2.30599 120.574 2.26953C120.884 2.23307 121.267 2.20573 121.723 2.1875C122.197 2.15104 122.78 2.10547 123.473 2.05078C123.072 2.41536 122.753 2.76172 122.516 3.08984C122.279 3.41797 122.087 3.70964 121.941 3.96484C121.777 4.25651 121.668 4.52995 121.613 4.78516C121.54 5.11328 121.477 5.65104 121.422 6.39844C121.385 7.1276 121.34 7.94792 121.285 8.85938C121.249 9.77083 121.212 10.7188 121.176 11.7031C121.139 12.6875 121.103 13.5898 121.066 14.4102C121.066 15.0299 121.048 15.6953 121.012 16.4062C120.975 17.0078 120.939 17.6914 120.902 18.457C120.866 19.2044 120.82 19.9609 120.766 20.7266L118.332 20.7812C117.621 19.5234 117.02 18.4479 116.527 17.5547C116.053 16.6432 115.661 15.8958 115.352 15.3125C115.005 14.638 114.714 14.0729 114.477 13.6172C114.276 13.1797 114.012 12.6784 113.684 12.1133C113.41 11.6393 113.064 11.056 112.645 10.3633C112.243 9.67057 111.76 8.8776 111.195 7.98438C111.141 9.24219 111.113 10.3177 111.113 11.2109C111.132 12.0859 111.159 12.8151 111.195 13.3984C111.25 14.0729 111.314 14.638 111.387 15.0938C111.478 15.5312 111.605 16.0234 111.77 16.5703C111.915 17.0443 112.089 17.6003 112.289 18.2383C112.508 18.8763 112.772 19.5964 113.082 20.3984C112.007 20.3438 111.204 20.3164 110.676 20.3164H109.855C109.6 20.3164 109.254 20.3438 108.816 20.3984C108.452 20.4349 107.951 20.4896 107.312 20.5625C106.693 20.6354 105.918 20.7357 104.988 20.8633C105.426 20.3346 105.772 19.8516 106.027 19.4141C106.301 18.9583 106.51 18.5755 106.656 18.2656C106.839 17.901 106.966 17.582 107.039 17.3086C107.094 17.0169 107.13 16.5156 107.148 15.8047C107.167 15.0755 107.167 14.2552 107.148 13.3438C107.148 12.4141 107.13 11.4388 107.094 10.418C107.076 9.39714 107.048 8.44922 107.012 7.57422C106.975 6.69922 106.93 5.95182 106.875 5.33203C106.839 4.71224 106.811 4.32943 106.793 4.18359C106.738 3.94661 106.629 3.69141 106.465 3.41797C106.319 3.18099 106.128 2.91667 105.891 2.625C105.654 2.3151 105.326 1.97786 104.906 1.61328ZM133.754 1.25781C134.921 1.23958 135.878 1.44922 136.625 1.88672C137.391 2.32422 138.01 2.84375 138.484 3.44531C138.958 4.04688 139.323 4.65755 139.578 5.27734C139.833 5.87891 140.034 6.35286 140.18 6.69922C140.216 6.79036 140.289 6.90885 140.398 7.05469C140.49 7.18229 140.617 7.33724 140.781 7.51953C140.964 7.68359 141.191 7.875 141.465 8.09375C140.9 8.11198 140.398 8.13021 139.961 8.14844C139.523 8.14844 139.15 8.15755 138.84 8.17578C138.493 8.19401 138.184 8.21224 137.91 8.23047C137.637 8.2487 137.299 8.27604 136.898 8.3125C136.534 8.34896 136.087 8.38542 135.559 8.42188C135.03 8.45833 134.383 8.51302 133.617 8.58594C134.073 8.03906 134.428 7.55599 134.684 7.13672C134.957 6.69922 135.158 6.31641 135.285 5.98828C135.431 5.64193 135.513 5.34115 135.531 5.08594C135.568 4.83073 135.559 4.61198 135.504 4.42969C135.395 4.01042 135.112 3.70964 134.656 3.52734C133.344 3.16276 132.195 3.45443 131.211 4.40234C130.245 5.33203 129.552 6.86328 129.133 8.99609C128.932 10.0534 128.741 11.1562 128.559 12.3047C128.395 13.4349 128.331 14.474 128.367 15.4219C128.404 16.3516 128.586 17.1081 128.914 17.6914C129.242 18.2747 129.807 18.5482 130.609 18.5117C131.393 18.4753 132.059 18.3477 132.605 18.1289C133.152 17.8919 133.59 17.6185 133.918 17.3086C134.246 16.9805 134.474 16.6341 134.602 16.2695C134.747 15.8867 134.802 15.5312 134.766 15.2031C134.693 14.9479 134.501 14.6745 134.191 14.3828C133.918 14.1276 133.508 13.8451 132.961 13.5352C132.414 13.207 131.63 12.8698 130.609 12.5234C131.576 12.4688 132.368 12.4323 132.988 12.4141C133.626 12.3776 134.128 12.3411 134.492 12.3047C134.93 12.2682 135.267 12.2409 135.504 12.2227C135.723 12.2044 136.042 12.1862 136.461 12.168C136.826 12.1497 137.29 12.1406 137.855 12.1406C138.439 12.1406 139.168 12.1315 140.043 12.1133C139.715 12.4414 139.46 12.7422 139.277 13.0156C139.186 13.1615 139.104 13.2891 139.031 13.3984C138.958 13.5807 138.931 13.9544 138.949 14.5195C138.949 14.9935 138.986 15.6953 139.059 16.625C139.132 17.5365 139.268 18.7852 139.469 20.3711L135.832 20.8633L135.996 17.1719C135.577 18.1745 135.048 18.9219 134.41 19.4141C133.79 19.9062 133.198 20.2526 132.633 20.4531C131.958 20.6901 131.257 20.7995 130.527 20.7812C129.579 20.6901 128.632 20.4714 127.684 20.125C126.736 19.7786 125.897 19.25 125.168 18.5391C124.439 17.8099 123.874 16.8711 123.473 15.7227C123.09 14.5742 122.971 13.1523 123.117 11.457C123.281 9.76172 123.682 8.28516 124.32 7.02734C124.977 5.7513 125.788 4.69401 126.754 3.85547C127.72 3.01693 128.805 2.38802 130.008 1.96875C131.229 1.53125 132.478 1.29427 133.754 1.25781Z" fill="white"/>
</svg>
